<svg xmlns="http://www.w3.org/2000/svg" version="1.1" xmlns:xlink="http://www.w3.org/1999/xlink" xmlns:svgjs="http://svgjs.dev/svgjs" width="100%" height="100%" viewBox="0 0 1000 600"><rect width="1000" height="600" x="0" y="0" fill="#e2d1f9"/><g><rect width="333.3333333333333" height="333.3333333333333" rx="13.333333333333334" ry="13.333333333333334" y="299.04957471786093" fill="#317773" transform="matrix(0.4515449873796756,0,0,0.4515449873796755,0,89.70817628765793)" x="276.8274841308594"/><path d="M432.7978854206369 528.8003496387229L432.7978854206369 401.42651786302196L398.0876050468051 402.6321253396575L391.0221844860574 444.8283870219004L377.6763900935341 444.8283870219004L381.1249882243752 390.7162374891902L506.87265177577706 390.7162374891902L509.31190411222565 444.8283870219004L496.58293214960884 444.8283870219004L489.9380723365247 402.6321253396575L455.0034928972724 401.42651786302196L455.0034928972724 528.8003496387229L483.657698504749 530.819041227508L483.657698504749 540.7162374891902L406.5548947664313 540.7162374891902L406.5548947664313 530.819041227508L432.7978854206369 528.8003496387229Z " fill="#e2d1f9" transform="matrix(0.4515449873796756,0,0,0.4515449873796755,0,89.70817628765793)"/><path d="M742.3105650377856 528.2017383309365L742.3105650377856 415.3975736744424L711.5706231833415 416.46527763223L705.3133813842139 453.83491615479744L693.4941468747508 453.83491615479744L696.5482768005154 405.9123896773522L807.9122826302262 405.9123896773522L810.0725208704011 453.83491615479744L798.7995535021316 453.83491615479744L792.9147665719997 416.46527763223L761.976182120758 415.3975736744424L761.976182120758 528.2017383309365L787.3527738616642 529.9895217021158L787.3527738616642 538.7546262858143L719.0693812124547 538.7546262858143L719.0693812124547 529.9895217021158L742.3105650377856 528.2017383309365ZM822.5870044686562 538.7546262858143L822.5870044686562 529.9895217021158L835.9953797525011 528.9218177443281L835.9953797525011 453.28864901360373L823.1084412852504 450.08553714024083L823.1084412852504 440.42654087095264L847.7897839373645 437.19859867299004L848.1374084817605 437.19859867299004L852.0854300931148 440.42654087095264L852.0854300931148 443.6544830689153L851.5391629519213 457.58429516935405L852.0854300931148 457.58429516935405Q853.8732134642942 454.5549955681891 858.5164841644405 449.7130822712451Q863.1597548645866 444.8959992989009 870.4847006215018 440.87348671374747Q877.8344767030167 436.85097412859403 886.4009386899177 436.85097412859403L886.4009386899177 436.85097412859403Q889.9765054322761 436.85097412859403 892.3105559446492 437.7448658141837L892.3105559446492 437.7448658141837L892.3105559446492 457.758107441552Q891.0442093900638 456.8642157559624 888.2880433594958 456.06964536877155Q885.5070470043279 455.27507498158076 882.1052925341673 455.27507498158076L882.1052925341673 455.27507498158076Q867.2815887481388 455.27507498158076 854.5932928776858 464.3878041096753L854.5932928776858 464.3878041096753L854.5932928776858 528.7480054721302L877.2882095618231 530.1633339743139L877.2882095618231 538.7546262858143L822.5870044686562 538.7546262858143ZM985.4491035181709 540.3685973847957Q980.4333779490291 540.3685973847957 978.0248364628569 538.4070017414183Q975.6162949766849 536.4205757734414 975.6162949766849 531.9511173454932L975.6162949766849 531.9511173454932L975.6162949766849 525.8925181431632Q969.7066777219532 531.7773050732951 960.8670821644555 536.2467635012433Q952.0274866069578 540.7162219291918 943.0885697510614 540.7162219291918L943.0885697510614 540.7162219291918Q926.4522522692539 540.7162219291918 919.4749310567347 531.7773050732951Q912.4976098442155 522.8383882173987 912.4976098442155 502.2788794488366L912.4976098442155 502.2788794488366L912.4976098442155 450.4331616846368L902.4909890305314 447.5776743556699L902.4909890305314 439.706461457561L927.5199562270416 437.39724126978774L927.6937684992397 437.39724126978774L931.0955229694002 439.532649185363L931.0955229694002 500.863550946653Q931.0955229694002 511.2177963047331 932.6101727699827 517.0280922610659Q934.1496528951648 522.8383882173987 937.9735228835207 525.6193845725663Q941.822223196476 528.3755506031346 949.1471689533912 528.3755506031346L949.1471689533912 528.3755506031346Q956.2983024381085 528.3755506031346 962.5555442372361 525.3462510019697Q968.8127860363636 522.3169514008047 973.4808870611096 518.1951175172524L973.4808870611096 518.1951175172524L973.4808870611096 450.4331616846368L960.5939485938586 447.5776743556699L960.5939485938586 439.706461457561L987.783154030544 437.39724126978774L987.9569663027421 437.39724126978774L992.0539698616944 439.532649185363L992.0539698616944 529.6418971577198L1002.7806700887704 529.6418971577198L1002.6068578165723 537.6869223280266Q997.6159625720302 538.9284385580124 993.9410745312728 539.6485179714041Q990.2661864905151 540.3685973847957 985.4491035181709 540.3685973847957L985.4491035181709 540.3685973847957ZM1061.0822722488954 540.7162219291918Q1039.4302291979461 540.7162219291918 1028.0827708558775 526.5877672319552Q1016.7353125138088 512.4841428593185 1016.7353125138088 488.8705041649918L1016.7353125138088 488.8705041649918Q1016.7353125138088 473.3267209655718 1022.6449297685404 461.5323167807083Q1028.5297166986722 449.7130822712451 1039.1819259519489 443.2820281999196Q1049.8093048806259 436.85097412859403 1063.3914924366686 436.85097412859403L1063.3914924366686 436.85097412859403Q1080.0278099184761 436.85097412859403 1089.2398603449694 446.0630245550874Q1098.427080446863 455.27507498158076 1098.9733475880569 472.4328292799821L1098.9733475880569 472.4328292799821Q1098.9733475880569 483.33334177925593 1097.7318313580713 489.0443164371898L1097.7318313580713 489.0443164371898L1036.227117324583 489.0443164371898Q1036.5747418689791 506.7483378767849 1044.445954767088 517.5743594022596Q1052.3171676651968 528.3755506031346 1066.7932469068294 528.3755506031346L1066.7932469068294 528.3755506031346Q1073.9443803915465 528.3755506031346 1081.7162719912565 525.7931968447645Q1089.4881635909665 523.2108430863943 1093.7838097467168 519.6352763440357L1093.7838097467168 519.6352763440357L1097.1855642168775 527.4816589175448Q1091.9960263755377 532.8450090310828 1081.8155932896555 536.7930306424371Q1071.6103298791736 540.7162219291918 1061.0822722488954 540.7162219291918L1061.0822722488954 540.7162219291918ZM1036.4009295967812 479.5839627646994L1079.3077305050845 479.5839627646994Q1079.8539976462782 475.8345837501427 1079.8539976462782 471.88656213878846L1079.8539976462782 471.88656213878846Q1079.6553550494805 460.265970226123 1074.937593375535 453.56178258420056Q1070.19500137699 446.85759494227824 1059.989737966508 446.85759494227824L1059.989737966508 446.85759494227824Q1049.635492608428 446.85759494227824 1043.4527417830996 454.3811832959911Q1037.2948212823708 461.8799413251043 1036.4009295967812 479.5839627646994L1036.4009295967812 479.5839627646994ZM1171.0309495764227 528.3755506031346L1171.0309495764227 451.32705337022645L1154.2208198224173 451.32705337022645L1154.2208198224173 443.1082159277216L1171.0309495764227 439.706461457561L1171.0309495764227 431.31381174285815Q1171.0309495764227 420.21465664678664 1176.8412455327552 410.92811524649414Q1182.651541489088 401.64157384620165 1192.0374041877794 396.1789024342649Q1201.4232668864709 390.71623102232815 1211.9513245167489 390.71623102232815L1211.9513245167489 390.71623102232815Q1218.0347540436785 390.71623102232815 1222.5042124716267 392.33020212130947L1222.5042124716267 392.33020212130947L1222.5042124716267 410.20803583310243Q1220.8902413726455 408.79270733091886 1216.1724796987 407.45186980253436Q1211.429887700155 406.11103227414986 1205.6940827176213 406.11103227414986L1205.6940827176213 406.11103227414986Q1197.3014330029184 406.11103227414986 1193.452732689963 410.4811694036993Q1189.6040323770076 414.8513065332487 1189.6040323770076 425.57800676032457L1189.6040323770076 425.57800676032457L1189.6040323770076 439.706461457561L1214.285375029122 439.706461457561L1214.285375029122 451.32705337022645L1189.6040323770076 451.32705337022645L1189.6040323770076 528.5741931999322L1209.4682920567777 529.9895217021158L1209.4682920567777 538.7546262858143L1155.8347909213985 538.7546262858143L1155.8347909213985 529.9895217021158L1171.0309495764227 528.3755506031346ZM1272.2145223202513 540.7162219291918Q1250.5873095939016 540.7162219291918 1239.2150209272334 526.5877672319552Q1227.8675625851647 512.4841428593185 1227.8675625851647 488.8705041649918L1227.8675625851647 488.8705041649918Q1227.8675625851647 473.3267209655718 1233.7771798398962 461.5323167807083Q1239.6619667700281 449.7130822712451 1250.3141760233048 443.2820281999196Q1260.9415549519817 436.85097412859403 1274.5237425080245 436.85097412859403L1274.5237425080245 436.85097412859403Q1291.160059989832 436.85097412859403 1300.3721104163253 446.0630245550874Q1309.5841608428186 455.27507498158076 1310.1055976594128 472.4328292799821L1310.1055976594128 472.4328292799821Q1310.1055976594128 483.33334177925593 1308.8640814294272 489.0443164371898L1308.8640814294272 489.0443164371898L1247.359367395939 489.0443164371898Q1247.706991940335 506.7483378767849 1255.578204838444 517.5743594022596Q1263.4494177365527 528.3755506031346 1277.925496978185 528.3755506031346L1277.925496978185 528.3755506031346Q1285.0766304629024 528.3755506031346 1292.8485220626123 525.7931968447645Q1300.6452439869222 523.2108430863943 1304.9160598180729 519.6352763440357L1304.9160598180729 519.6352763440357L1308.3178142882334 527.4816589175448Q1303.1282764468933 532.8450090310828 1292.947843361011 536.7930306424371Q1282.7674102751291 540.7162219291918 1272.2145223202513 540.7162219291918L1272.2145223202513 540.7162219291918ZM1247.5331796681369 479.5839627646994L1290.4399805764403 479.5839627646994Q1290.986247717634 475.8345837501427 1290.986247717634 471.88656213878846L1290.986247717634 471.88656213878846Q1290.812435445436 460.265970226123 1286.069843446891 453.56178258420056Q1281.3272514483458 446.85759494227824 1271.1468183624636 446.85759494227824L1271.1468183624636 446.85759494227824Q1260.7677426797839 446.85759494227824 1254.609822179055 454.3811832959911Q1248.4270713537267 461.8799413251043 1247.5331796681369 479.5839627646994L1247.5331796681369 479.5839627646994ZM1369.4749037773254 540.7162219291918Q1347.822860726376 540.7162219291918 1336.4754023843075 526.5877672319552Q1325.1279440422386 512.4841428593185 1325.1279440422386 488.8705041649918L1325.1279440422386 488.8705041649918Q1325.1279440422386 473.3267209655718 1331.0375612969706 461.5323167807083Q1336.9223482271022 449.7130822712451 1347.5745574803789 443.2820281999196Q1358.201936409056 436.85097412859403 1371.7841239650986 436.85097412859403L1371.7841239650986 436.85097412859403Q1388.420441446906 436.85097412859403 1397.6324918733994 446.0630245550874Q1406.819711975293 455.27507498158076 1407.3659791164869 472.4328292799821L1407.3659791164869 472.4328292799821Q1407.3659791164869 483.33334177925593 1406.124462886501 489.0443164371898L1406.124462886501 489.0443164371898L1344.619748853013 489.0443164371898Q1344.9673733974091 506.7483378767849 1352.8385862955179 517.5743594022596Q1360.7097991936268 528.3755506031346 1375.1858784352592 528.3755506031346L1375.1858784352592 528.3755506031346Q1382.3370119199765 528.3755506031346 1390.1089035196865 525.7931968447645Q1397.8807951193967 523.2108430863943 1402.1764412751468 519.6352763440357L1402.1764412751468 519.6352763440357L1405.5781957453073 527.4816589175448Q1400.3886579039677 532.8450090310828 1390.2082248180855 536.7930306424371Q1380.0029614076034 540.7162219291918 1369.4749037773254 540.7162219291918L1369.4749037773254 540.7162219291918ZM1344.793561125211 479.5839627646994L1387.7003620335145 479.5839627646994Q1388.246629174708 475.8345837501427 1388.246629174708 471.88656213878846L1388.246629174708 471.88656213878846Q1388.0479865779103 460.265970226123 1383.330224903965 453.56178258420056Q1378.58763290542 446.85759494227824 1368.3823694949378 446.85759494227824L1368.3823694949378 446.85759494227824Q1358.028124136858 446.85759494227824 1351.8453733115296 454.3811832959911Q1345.6874528108008 461.8799413251043 1344.793561125211 479.5839627646994L1344.793561125211 479.5839627646994ZM1461.3471047962619 540.7162219291918Q1450.620404569186 540.7162219291918 1441.6814877132897 535.3528718156538Q1432.7425708573928 529.9895217021158 1427.478542042254 518.915196930644Q1422.2145132271148 507.81604183457256 1422.2145132271148 491.5521792217608L1422.2145132271148 491.5521792217608Q1422.2145132271148 476.35602056673673 1428.4717550262426 463.8415369684816Q1434.72899682537 451.32705337022645 1446.4240797118346 444.1014289117101Q1458.143992922899 436.85097412859403 1474.0602309913147 436.85097412859403L1474.0602309913147 436.85097412859403Q1483.1729601194093 436.85097412859403 1490.6717181485224 438.8125697719713L1490.6717181485224 438.8125697719713L1490.6717181485224 405.3909528607582L1472.4462598923333 403.2307146205832L1472.4462598923333 395.55814431927206L1504.6263605735608 392.33020212130947L1505.147797390155 392.33020212130947L1509.095819001509 395.18568945027636L1509.095819001509 529.6418971577198L1519.4500643595893 529.6418971577198L1519.4500643595893 537.8607346002248Q1513.7390897016553 539.1022508302103 1509.542764844304 539.822330243602Q1505.3464399869526 540.5424096569936 1500.6783389622065 540.5424096569936L1500.6783389622065 540.5424096569936Q1496.0350682620601 540.5424096569936 1494.073472618683 538.9284385580124Q1492.1118769753057 537.314467459031 1492.1118769753057 532.1497599422908L1492.1118769753057 532.1497599422908L1492.1118769753057 526.4139549597572Q1487.0961514061637 532.4973844866868 1478.9766352620577 536.6192183702391Q1470.832288793352 540.7162219291918 1461.3471047962619 540.7162219291918L1461.3471047962619 540.7162219291918ZM1468.498238280979 528.0279260587386Q1475.4755594934982 528.0279260587386 1481.5589890204278 524.8993051591747Q1487.6424185473575 521.770684259611 1490.6717181485224 517.6488503760587L1490.6717181485224 517.6488503760587L1490.6717181485224 452.2209450558161Q1489.2563896463387 450.08553714024083 1483.9675305066 448.3722447428607Q1478.703501691461 446.68378267008023 1472.7938844367293 446.68378267008023L1472.7938844367293 446.68378267008023Q1458.8640723362905 446.68378267008023 1450.545913595387 457.3111615987572Q1442.2277548544832 467.96337085203385 1442.2277548544832 490.1368507195772L1442.2277548544832 490.1368507195772Q1442.2277548544832 509.4300129335538 1449.5527006113984 518.7413846584461Q1456.8776463683137 528.0279260587386 1468.498238280979 528.0279260587386L1468.498238280979 528.0279260587386ZM1525.3596816143208 403.2307146205832L1525.3596816143208 395.73195659147L1553.9642155531897 392.33020212130947L1554.3118400975857 392.33020212130947L1558.4336739811379 395.01187717807835L1558.4336739811379 448.8191905856555Q1563.797024094676 443.6544830689153 1571.2212911499898 440.2527285987547Q1578.645558205304 436.85097412859403 1587.7582873333986 436.85097412859403L1587.7582873333986 436.85097412859403Q1598.4849875604743 436.85097412859403 1607.324583117972 442.04051196993396Q1616.1890090000693 447.2300498112739 1621.4530378152085 458.1305623105477Q1626.7170666303475 469.0310748098215 1626.7170666303475 485.6673922916289L1626.7170666303475 485.6673922916289Q1626.7170666303475 501.037363218851 1620.3853338574208 513.5518468171061Q1614.0287707598943 526.0663304153613 1602.234366575031 533.3912761722765Q1590.4399623901675 540.7162219291918 1574.8713488661479 540.7162219291918L1574.8713488661479 540.7162219291918Q1562.5555078646903 540.7162219291918 1552.3502444542082 538.3076804430195Q1542.1698113683262 535.8991389568474 1540.0095731281513 533.9375433134701L1540.0095731281513 533.9375433134701L1540.0095731281513 405.21714058856026L1525.3596816143208 403.2307146205832ZM1580.4333415764834 449.5392699990472Q1573.629832636162 449.5392699990472 1567.819536679829 452.66789089861095Q1562.0092407234965 455.7965117981747 1558.4336739811379 459.744533409529L1558.4336739811379 459.744533409529L1558.4336739811379 525.5200632741676Q1559.5013779389255 528.0279260587386 1564.5915944818667 529.542575859321Q1569.7066413494076 531.0572256599035 1576.137695420733 531.0572256599035L1576.137695420733 531.0572256599035Q1589.893695248974 531.0572256599035 1598.3111752882764 519.9829008884317Q1606.703825002979 508.90857611695986 1606.703825002979 487.6289879350062L1606.703825002979 487.6289879350062Q1606.703825002979 468.48480766862787 1599.3788792460641 459.02445399613737Q1592.0539334891487 449.5392699990472 1580.4333415764834 449.5392699990472L1580.4333415764834 449.5392699990472ZM1642.2856801543671 511.9378757181248Q1642.2856801543671 495.1277459641194 1659.0958099083728 487.1820420922114Q1675.8811093377783 479.2115078957036 1701.6301559476801 478.6900710791097L1701.6301559476801 478.6900710791097L1701.6301559476801 473.67434550996774Q1701.6301559476801 465.2816957952649 1699.842372576501 460.439782498321Q1698.0545892053217 455.62269952597677 1693.6844520757722 453.3879703120026Q1689.2894846216232 451.15324109802845 1681.2444594513163 451.15324109802845L1681.2444594513163 451.15324109802845Q1672.1317303232217 451.15324109802845 1664.9061058647053 453.73559485639856Q1657.6556510815892 456.34277893936843 1650.5045175968721 460.092157953925L1650.5045175968721 460.092157953925L1646.035059168924 450.8056165536325Q1648.3691096812968 448.8191905856555 1654.6263514804245 445.61607871229256Q1660.8835932795519 442.3881365143299 1669.1024307220569 439.880273729759Q1677.3212681645616 437.39724126978774 1685.5401056070664 437.39724126978774L1685.5401056070664 437.39724126978774Q1698.2284014775196 437.39724126978774 1705.6526685328338 440.87348671374747Q1713.0769355881475 444.34973215770725 1716.3048777861104 452.0471327836181Q1719.5079896594734 459.744533409529 1719.5079896594734 472.6066415521801L1719.5079896594734 472.6066415521801L1719.5079896594734 529.9895217021158L1730.0608776143513 529.9895217021158L1730.0608776143513 537.8607346002248Q1726.4853108719926 538.7546262858143 1721.0226394600559 539.6485179714041Q1715.5847983727188 540.5424096569936 1711.4629644891663 540.5424096569936L1711.4629644891663 540.5424096569936Q1706.4720692446242 540.5424096569936 1704.6842858734449 539.0277598564112Q1702.8965025022658 537.5131100558287 1702.8965025022658 532.3235722144889L1702.8965025022658 532.3235722144889L1702.8965025022658 526.4139549597572Q1697.5331523887276 531.7773050732951 1689.736430464418 536.2467635012433Q1681.964538864708 540.7162219291918 1672.1317303232217 540.7162219291918L1672.1317303232217 540.7162219291918Q1659.2696221805707 540.7162219291918 1650.7776511674688 533.2919548738776Q1642.2856801543671 525.8925181431632 1642.2856801543671 511.9378757181248L1642.2856801543671 511.9378757181248ZM1679.8291309491326 528.5741931999322Q1684.4724016492787 528.5741931999322 1690.5558311762084 525.6938755463656Q1696.639260703138 522.8383882173987 1701.6301559476801 518.915196930644L1701.6301559476801 518.915196930644L1701.6301559476801 488.1504247516002Q1682.1383511369058 488.1504247516002 1672.2310516216205 494.1593633047306Q1662.2989217817355 500.14347153326133 1662.2989217817355 509.80246780254953L1662.2989217817355 509.80246780254953Q1662.2989217817355 519.4366337472379 1667.0415137802806 524.0054134735851Q1671.7841057788255 528.5741931999322 1679.8291309491326 528.5741931999322L1679.8291309491326 528.5741931999322ZM1740.439953297031 489.7643958505815Q1740.439953297031 474.9406920645531 1746.2502492533636 462.9476452828919Q1752.0605452096966 450.9794288258305 1763.408003551765 443.9027863149124Q1774.7554618938339 436.85097412859403 1790.6716999622495 436.85097412859403L1790.6716999622495 436.85097412859403Q1798.3442702635607 436.85097412859403 1803.906262973896 438.29113295537735Q1809.4434253596323 439.706461457561 1817.1159956609436 442.21432424213197L1817.1159956609436 442.21432424213197L1816.4207465721515 469.7511542232132L1804.800154659486 469.7511542232132L1800.8521330481317 451.50086564242446Q1799.784429090344 446.5099703978822 1787.269945492089 446.5099703978822L1787.269945492089 446.5099703978822Q1774.7554618938339 446.5099703978822 1767.5050071107175 456.61591250996526Q1760.279382652201 466.69702429744854 1760.279382652201 485.29493742263327L1760.279382652201 485.29493742263327Q1760.279382652201 506.40071333238893 1768.398898796307 517.4005471300616Q1776.543245265013 528.3755506031346 1789.6039960044618 528.3755506031346L1789.6039960044618 528.3755506031346Q1797.102754033575 528.3755506031346 1803.8069416754975 526.0663304153613Q1810.51112931742 523.7322799029882 1815.328212289764 520.5291680296253L1815.328212289764 520.5291680296253L1818.7299667599245 527.6803015143425Q1813.9128837875805 532.6711967588849 1804.527021088889 536.6937093440383Q1795.1411583901977 540.7162219291918 1785.4821621209098 540.7162219291918L1785.4821621209098 540.7162219291918Q1770.8322706070794 540.7162219291918 1760.7263284949959 534.1113555856682Q1750.6203863829132 527.4816589175448 1745.5301698399721 515.9603883032783Q1740.439953297031 504.43911768901165 1740.439953297031 489.7643958505815L1740.439953297031 489.7643958505815ZM1843.7589339564347 528.3755506031346L1843.7589339564347 405.3909528607582L1829.8291218559962 403.4293572173809L1829.8291218559962 395.73195659147L1858.2350131980675 392.33020212130947L1858.433655794865 392.33020212130947L1862.3568470816194 395.01187717807835L1862.3568470816194 482.43945009366627L1862.0092225372236 492.9923380485441L1903.3020523465457 450.25934941243884L1889.893677062701 447.75148662786785L1889.893677062701 439.532649185363L1933.1481025154003 439.532649185363L1933.1481025154003 447.75148662786785L1919.0196478181633 450.25934941243884L1892.7491643916678 475.8345837501427L1926.7170484440744 528.5741931999322L1937.7913732155462 529.9895217021158L1937.7913732155462 538.7546262858143L1894.3631354906493 538.7546262858143L1894.3631354906493 529.9895217021158L1905.6112725343187 528.3755506031346L1880.4084930656109 486.9089085216146L1862.0092225372236 505.13436677780356L1862.3568470816194 514.2719262304978L1862.3568470816194 528.3755506031346L1875.0451429520726 529.9895217021158L1875.0451429520726 538.7546262858143L1832.5107969127653 538.7546262858143L1832.5107969127653 529.9895217021158L1843.7589339564347 528.3755506031346Z " fill="#317773" transform="matrix(0.4515449873796756,0,0,0.4515449873796755,0,89.70817628765793)"/></g></svg>